<?xml version="1.0" standalone="no"?>
<!DOCTYPE svg PUBLIC "-//W3C//DTD SVG 1.1//EN" "http://www.w3.org/Graphics/SVG/1.1/DTD/svg11.dtd" >
<svg xmlns="http://www.w3.org/2000/svg">
<metadata>Generated by IcoMoon</metadata>
<defs>
<font id="icomoon" horiz-adv-x="1024">
<font-face units-per-em="1024" ascent="960" descent="-64" />
<missing-glyph horiz-adv-x="1024" />
<glyph unicode="&#x20;" horiz-adv-x="512" d="" />
<glyph unicode="&#xe900;" glyph-name="icon-barchart" d="M405.5 960c-12 0-21.5-9.5-21.5-21.5v-981c0-12 9.5-21.5 21.5-21.5h213c12 0 21.5 9.5 21.5 21.5v981c0 12-9.5 21.5-21.5 21.5h-213zM21.5 448c-12 0-21.5-9.5-21.5-21.5v-469c0-12 9.5-21.5 21.5-21.5h213c12 0 21.5 9.5 21.5 21.5v469c0 12-9.5 21.5-21.5 21.5h-213zM789.5 704c-12 0-21.5-9.5-21.5-21.5v-725c0-12 9.5-21.5 21.5-21.5h213c12 0 21.5 9.5 21.5 21.5v725c0 12-9.5 21.5-21.5 21.5h-213z" />
<glyph unicode="&#xe901;" glyph-name="icon-check" horiz-adv-x="1280" d="M1272.5 722.375c10.625 10 10.625 28.125 0 38.125l-186.875 186.875c-10 10-28.125 10-38.125 0l-567.5-568.75-247.5 248.75c-10 10-28.125 10-38.125 0l-186.875-186.875c-10.625-10-10.625-28.125 0-38.125l453.125-453.75c6.25-4.375 11.875-7.5 19.375-7.5s13.125 3.125 19.375 7.5l773.125 773.75z" />
<glyph unicode="&#xe902;" glyph-name="icon-dashboard" d="M512 960c-283.5 0-512-228.5-512-512s228.5-512 512-512c283.5 0 512 228.5 512 512s-228.5 512-512 512v0zM512 576h85.5v-448c0-47.5-38-85.5-85.5-85.5s-85.5 38-85.5 85.5c0 6 1.5 13 2.5 19l83 429zM789.5 448c0 188.5-153 341.5-341.5 341.5-185 0-336.5-148.5-341.5-332 5 219 185 396 405.5 396 224 0 405.5-181.5 405.5-405.5h-128z" />
<glyph unicode="&#xe903;" glyph-name="icon-document" horiz-adv-x="878" d="M822.857 618.5c0 6-2.5 11-6 15.5l-320 320c-4.5 3.5-9.5 6-15.5 6h-362.5c-35.5 0-64-28.5-64-64v-896c0-35.5 28.5-64 64-64h640c35.5 0 64 28.5 64 64v618.5z" />
<glyph unicode="&#xe904;" glyph-name="icon-edit" d="M832 576l-527.5-527.5c-2.5-2.5-4.5-3.5-7-4.5l-268-107c-3.5-1-6-1-8-1-6 0-11 2.5-15.5 6-6 6-7 15.5-5 23.5l107 268c1 2.5 2 4.5 4.5 7l527.5 527.5 192-192zM1005 840.5c25-26.5 25-66.5 0-91.5l-109-109-192 192 109 109c25 25 65 25 91.5 0l100.5-100.5z" />
<glyph unicode="&#xe905;" glyph-name="icon-navigate-down" horiz-adv-x="1365" d="M1365.333 675.333c0 8-3.333 14.667-8 20.667l-199.333 199.333c-10.667 10.667-30 10.667-40.667 0l-434.667-436-434.667 436c-10.667 10.667-30 10.667-40.667 0l-199.333-199.333c-11.333-10.667-11.333-30 0-40.667l654-654.667c11.333-10.667 30-10.667 41.333 0l654 654.667c4.667 6 8 12 8 20v0z" />
<glyph unicode="&#xe906;" glyph-name="icon-navigate-right" horiz-adv-x="717" d="M163.195 954l-156.898-149.5c-8.396-8-8.396-22.5 0-30.5l342.133-326-342.133-326c-8.396-8-8.396-22.5 0-30.5l156.898-149.5c8.396-8.5 23.613-8.5 32.009 0l515.298 490.5c8.396 8.5 8.396 22.5 0 31l-515.298 490.5c-4.723 3.5-9.445 6-15.742 6s-11.544-2.5-16.267-6z" />
<glyph unicode="&#xe907;" glyph-name="icon-notifications" d="M405.5 42.5c0-59 47-106.5 106.5-106.5s106.5 47.5 106.5 106.5h-213zM1023 141c2 8.5 1 18-5 23.5l-186 185v290.5c0 176.5-143.5 320-320 320s-320-143.5-320-320v-290.5l-186-185c-6-5.5-7-15-5-23.5 3.5-8.5 12-13 20.5-13h981c8.5 0 17 4.5 20.5 13v0z" />
<glyph unicode="&#xe908;" glyph-name="icon-plus-circle" d="M560.488 214.876c5.464 0 9.794 4.329 9.794 9.794v165.048h165.048c5.464 0 9.794 4.329 9.794 9.794v96.977c0 5.464-4.329 9.794-9.794 9.794h-165.048v165.048c0 5.464-4.329 9.794-9.794 9.794h-96.977c-5.464 0-9.794-4.329-9.794-9.794v-165.048h-165.048c-5.464 0-9.794-4.329-9.794-9.794v-96.986c0-5.464 4.329-9.794 9.794-9.794h165.048v-165.048c0-5.464 4.329-9.794 9.794-9.794h96.977zM512.005-64c-282.327 0-512.005 229.724-512.005 511.995 0 282.327 229.678 512.005 512.005 512.005 282.281 0 512.005-229.678 512.005-512.005-0.009-282.272-229.733-511.995-512.005-511.995zM512.005 868.469c-231.875 0-420.474-188.599-420.474-420.474s188.599-420.474 420.474-420.474 420.474 188.599 420.474 420.474-188.608 420.474-420.474 420.474z" />
<glyph unicode="&#xe909;" glyph-name="icon-search" d="M640 960c-212 0-384-172-384-384 0-76 21.5-146 59.5-205l-290.5-289c-33.5-33.5-33.5-88 0-121 16.5-16.5 38-25 60.5-25 21 0 43.5 8.5 60.5 25l289 290.5c59-38 129-59.5 205-59.5 212 0 384 172 384 384s-172 384-384 384v0zM640 320c-141 0-256 115-256 256s115 256 256 256c141 0 256-115 256-256s-115-256-256-256v0z" />
<glyph unicode="&#xe90a;" glyph-name="icon-shape-baloon" horiz-adv-x="1485" d="M204.8 430.753c0-375.286-204.8-494.753-204.8-494.753h989.914c273.199 0 494.886 221.508 494.886 494.753v34.494c0 273.191-221.568 494.753-494.886 494.753h-290.229c-273.199 0-494.886-221.508-494.886-494.753v-34.494z" />
<glyph unicode="&#xe90b;" glyph-name="icon-star" horiz-adv-x="945" d="M917.857 521.727c5.28 4.84 6.159 13.199 4.4 20.678-3.080 7.479-10.559 11.439-18.038 11.439h-287.735l-126.269 325.572c-3.080 7.039-10.119 12.319-17.598 12.319s-14.519-5.28-17.598-12.319l-126.269-325.572h-287.735c-7.479 0-14.959-3.96-18.038-11.439-1.76-7.479-0.88-15.839 4.4-20.678l219.101-218.221-55.435-290.815c-0.88-7.479 2.2-14.519 8.359-18.918 6.159-3.96 14.519-3.96 20.678 0l252.538 162.786 252.538-162.786c3.080-2.2 7.039-3.080 10.119-3.080s7.479 0.88 10.559 3.080c6.159 4.4 9.239 11.439 8.359 18.918l-55.435 290.815 219.101 218.221z" />
<glyph unicode="&#xe90c;" glyph-name="icon-up-down" horiz-adv-x="630" d="M42.614 651.425l80.471-85.194c4.306-4.559 12.111-4.559 16.417 0l175.474 185.774 175.474-185.774c4.306-4.559 12.111-4.559 16.417 0l80.471 85.194c4.575 4.559 4.575 12.822 0 17.381l-264.019 279.8c-4.575 4.559-12.111 4.559-16.686 0l-264.019-279.8c-1.884-2.564-3.23-5.129-3.23-8.548s1.346-6.268 3.23-8.833zM587.54 307.394l-80.471 85.194c-4.306 4.559-12.111 4.559-16.417 0l-175.474-185.774-175.474 185.774c-4.306 4.559-12.111 4.559-16.417 0l-80.471-85.194c-4.575-4.559-4.575-12.822 0-17.381l264.019-279.8c4.575-4.559 12.111-4.559 16.686 0l264.019 279.8c1.884 2.564 3.23 5.129 3.23 8.548s-1.346 6.268-3.23 8.833z" />
<glyph unicode="&#xe90d;" glyph-name="icon-uploadcloud" horiz-adv-x="1365" d="M1365.333 277.333c0 161.333-112 297.333-262 332-36.667 198.667-210.667 350.667-420.667 350.667-235.333 0-426.667-191.333-426.667-426.667v-3.333c-145.333-20.667-256-145.333-256-295.333 0-164.667 134-298.667 298.667-298.667h270v256h-213.333c-10.667 0-22 6-26.667 17.333-3.333 11.333-1.333 24 6.667 31.333l347.333 346.667 347.333-346.667c8-7.333 10-20 6.667-31.333-4.667-11.333-16-17.333-26.667-17.333h-213.333v-256h227.333c188 0 341.333 153.333 341.333 341.333v0z" />
<glyph unicode="&#xe90e;" glyph-name="icon-users" d="M1024 256c0 149.5-213.5 106.5-213.5 239.5 0 0 85.5 96 85.5 272.5 0 105.5-86.5 192-192 192-106.5 0-192-86.5-192-192 0-21.5 1-40.5 3.5-59.5v-1c0 0 82-72 82-195.5 0-169.5-76-284.5-76-284.5s20-19 71-35.5h410c12 0 21.5 9.5 21.5 21.5v42.5zM640 0c0 149.5-213.5 106.5-213.5 239.5 0 0 85.5 96 85.5 272.5 0 105.5-86.5 192-192 192-106.5 0-192-86.5-192-192 0-176.5 85.5-272.5 85.5-272.5 0-133-213.5-91.5-213.5-239.5v-42.5c0-12 9.5-21.5 21.5-21.5h597c12 0 21.5 9.5 21.5 21.5v42.5z" />
<glyph unicode="&#xe90f;" glyph-name="iocn-close" d="M693.5 448l262 262c3.5 4.5 5.5 9.5 5.5 15.5s-2 10.5-5.5 15l-151 151c-4.5 3.5-9 5.5-15 5.5s-11-2-15.5-5.5l-262-262-262 262c-4.5 3.5-9.5 5.5-15.5 5.5s-10.5-2-15-5.5l-151-151c-3.5-4.5-5.5-9-5.5-15s2-11 5.5-15.5l262-262-262-262c-3.5-4.5-5.5-9.5-5.5-15.5s2-10.5 5.5-15l151-151c4.5-3.5 9-5.5 15-5.5s11 2 15.5 5.5l262 262 262-262c4.5-3.5 9.5-5.5 15.5-5.5s10.5 2 15 5.5l151 151c3.5 4.5 5.5 9 5.5 15s-2 11-5.5 15.5l-262 262z" />
<glyph unicode="&#xe910;" glyph-name="iocn-plus" d="M618.5-64c12 0 21.5 9.5 21.5 21.5v362.5h362.5c12 0 21.5 9.5 21.5 21.5v213c0 12-9.5 21.5-21.5 21.5h-362.5v362.5c0 12-9.5 21.5-21.5 21.5h-213c-12 0-21.5-9.5-21.5-21.5v-362.5h-362.5c-12 0-21.5-9.5-21.5-21.5v-213c0-12 9.5-21.5 21.5-21.5h362.5v-362.5c0-12 9.5-21.5 21.5-21.5h213z" />
<glyph unicode="&#xe911;" horiz-adv-x="783" d="M752.941 608.473c0 5.65-2.355 10.354-5.65 14.589l-301.176 301.176c-4.235 3.289-8.939 5.644-14.583 5.644h-341.179c-33.413 0-60.235-26.823-60.235-60.235v-843.294c0-33.413 26.823-60.235 60.235-60.235h602.353c33.413 0 60.235 26.823 60.235 60.235v582.12z" />
<glyph unicode="&#xe912;" horiz-adv-x="783" d="M692.706-64h-602.353c-49.821 0-90.353 40.532-90.353 90.353v843.294c0 49.821 40.532 90.353 90.353 90.353h341.179c11.704 0 22.823-4.030 33.057-11.999l304.002-303.646c10.409-13.029 14.469-24.178 14.469-35.882v-582.12c0-49.821-40.532-90.353-90.353-90.353zM90.353 899.765c-16.884 0-30.118-13.234-30.118-30.118v-843.294c0-16.884 13.234-30.118 30.118-30.118h602.353c16.884 0 30.118 13.234 30.118 30.118v578.795l-294.822 294.617h-337.649z" />
<glyph unicode="&#xe913;" horiz-adv-x="1339" d="M39.385 54.154c0-43.693 35.076-78.769 78.769-78.769h1102.769c43.693 0 78.769 35.076 78.769 78.769v630.154c0 43.693-35.076 78.769-78.769 78.769h-551.385l-39.385 115.074c-7.389 23.387-33.847 42.464-56.619 42.464h-455.381c-43.693 0-78.769-35.076-78.769-78.769v-787.692z" />
<glyph unicode="&#xe914;" horiz-adv-x="1339" d="M1220.923-64h-1102.769c-65.15 0-118.154 53.004-118.154 118.154v787.692c0 65.15 53.004 118.154 118.154 118.154h455.381c40.424 0 81.77-30.728 94.153-70.002l30.003-87.536h523.232c65.15 0 118.154-53.004 118.154-118.154v-630.154c0-65.15-53.004-118.154-118.154-118.154zM118.154 881.231c-22.079 0-39.385-17.306-39.385-39.385v-787.692c0-22.079 17.306-39.385 39.385-39.385h1102.769c22.079 0 39.385 17.306 39.385 39.385v630.154c0 22.079-17.306 39.385-39.385 39.385h-579.537l-48.498 141.69c-2.615 8.31-14.194 15.848-19.354 15.848h-455.381z" />
<glyph unicode="&#xe915;" glyph-name="icon-minus" horiz-adv-x="3584" d="M3508.75 0c42 0 75.25 33.25 75.25 75.25v745.5c0 42-33.25 75.25-75.25 75.25h-3433.5c-42 0-75.25-33.25-75.25-75.25v-745.5c0-42 33.25-75.25 75.25-75.25z" />
<glyph unicode="&#xe916;" glyph-name="icon-star-empty" d="M950.935 576v0h4.291c-5.033-10.399-5.585-20.843-3.488-29.753l71.199 16.753-67.634-27.849c5.834-14.169 16.72-24.087 29.226-28.924l-3.383-3.369h-355.793l-18.11 46.695-134.499 346.963 2.113 5.448c9.084-9.274 21.995-15.106 37.079-15.106 14.808 0 27.522 5.62 36.937 15.473l2.289-5.902-152.642-393.572h-355.793l-3.383 3.369c12.506 4.837 23.391 14.755 29.226 28.924l-67.634 27.849 71.199-16.753c2.135 9.073 1.524 19.738-3.171 29.753h3.973l261.116-260.067-7.268-38.129-59.46-310.98-2.914-1.879c-1.977 13.567-9.837 26.459-23.423 36.081-12.216 7.853-26.641 10.094-40.145 6.705l0.709 3.718 310.383 200.073 310.404-200.178 0.708-3.715c-4.188 1.037-8.403 1.515-12.612 1.515-10.071 0-20.031-2.637-30.513-10.124-10.834-7.738-18.015-19.557-19.92-34.423l-3.662 2.361-66.522 348.976 261.116 260.067zM1017.936 539.5v0l-249-248 63-330.5c1-8.5-2.5-16.5-9.5-21.5-3.5-2.5-8.5-3.5-12-3.5s-8 1-11.5 3.5l-287 185-287-185c-7-4.5-16.5-4.5-23.5 0-7 5-10.5 13-9.5 21.5l63 330.5-249 248c-6 5.5-7 15-5 23.5 3.5 8.5 12 13 20.5 13h327l143.5 370c3.5 8 11.5 14 20 14s16.5-6 20-14l143.5-370h327c8.5 0 17-4.5 20.5-13 2-8.5 1-18-5-23.5v0z" />
<glyph unicode="&#xe917;" glyph-name="icon-box" d="M1020.5 660l-85.5 256c-8 26-33 44-60.5 44h-725c-27.5 0-52.5-18-60.5-44l-85.5-256c-2.5-6-3.5-13-3.5-20v-640c0-35.5 28.5-64 64-64h896c35.5 0 64 28.5 64 64v640c0 7-1 14-3.5 20v0zM131.5 640l64 192h633l64-192h-761z" />
</font>
</defs>
</svg>
