<?xml version="1.0" encoding="utf-8"?>
<!-- Generator: Adobe Illustrator 19.2.0, SVG Export Plug-In . SVG Version: 6.00 Build 0)  -->
<svg version="1.1" id="icon-plus-circle" xmlns="http://www.w3.org/2000/svg" xmlns:xlink="http://www.w3.org/1999/xlink" x="0px"
	 y="0px" viewBox="0 0 11.1875 11.1875" enable-background="new 0 0 11.1875 11.1875" xml:space="preserve">
<path id="icon-plus-circle-plus" fill="#1E354A" d="M6.1235,8.1407c0.0597,0,0.107-0.0473,0.107-0.107V6.2305h1.8032
	c0.0597,0,0.107-0.0473,0.107-0.107V5.064c0-0.0597-0.0473-0.107-0.107-0.107H6.2305V3.1538c0-0.0597-0.0473-0.107-0.107-0.107
	H5.064c-0.0597,0-0.107,0.0473-0.107,0.107V4.957H3.1538c-0.0597,0-0.107,0.0473-0.107,0.107v1.0596
	c0,0.0597,0.0473,0.107,0.107,0.107H4.957v1.8032c0,0.0597,0.0473,0.107,0.107,0.107H6.1235z"/>
<path fill="#1E354A" d="M5.5938,11.1875C2.5093,11.1875,0,8.6777,0,5.5938C0,2.5093,2.5093,0,5.5938,0
	c3.084,0,5.5938,2.5093,5.5938,5.5938C11.1875,8.6777,8.6777,11.1875,5.5938,11.1875z M5.5938,1C3.0605,1,1,3.0605,1,5.5938
	s2.0605,4.5938,4.5938,4.5938s4.5938-2.0605,4.5938-4.5938S8.127,1,5.5938,1z"/>
</svg>
