<?xml version="1.0" encoding="UTF-8" standalone="no"?>
<svg width="14px" height="14px" viewBox="0 0 14 14" version="1.1" xmlns="http://www.w3.org/2000/svg" xmlns:xlink="http://www.w3.org/1999/xlink">
    <!-- Generator: Sketch 3.7.1 (28215) - http://www.bohemiancoding.com/sketch -->
    <title>icon-search</title>
    <desc>Created with Sketch.</desc>
    <defs></defs>
    <g id="Symbols" stroke="none" stroke-width="1" fill="none" fill-rule="evenodd">
        <g id="Components-/-Inputs-/-Search-Bar---Active" transform="translate(-11.000000, -13.000000)" fill="#555555">
            <path d="M19.75,13 C16.8515625,13 14.5,15.3515625 14.5,18.25 C14.5,19.2890625 14.7939453,20.2460938 15.3134766,21.0527344 L11.3417969,25.0039062 C10.8837891,25.4619141 10.8837891,26.2070312 11.3417969,26.6582031 C11.5673828,26.8837891 11.8613281,27 12.1689453,27 C12.4560547,27 12.7636719,26.8837891 12.9960938,26.6582031 L16.9472656,22.6865234 C17.7539062,23.2060547 18.7109375,23.5 19.75,23.5 C22.6484375,23.5 25,21.1484375 25,18.25 C25,15.3515625 22.6484375,13 19.75,13 L19.75,13 Z M19.75,21.75 C17.8222656,21.75 16.25,20.1777344 16.25,18.25 C16.25,16.3222656 17.8222656,14.75 19.75,14.75 C21.6777344,14.75 23.25,16.3222656 23.25,18.25 C23.25,20.1777344 21.6777344,21.75 19.75,21.75 L19.75,21.75 Z" id="icon-search"></path>
        </g>
    </g>
</svg>