<?xml version="1.0" encoding="UTF-8" standalone="no"?>
<svg width="14px" height="14px" viewBox="0 0 14 14" version="1.1" xmlns="http://www.w3.org/2000/svg" xmlns:xlink="http://www.w3.org/1999/xlink">
    <!-- Generator: Sketch 3.7.1 (28215) - http://www.bohemiancoding.com/sketch -->
    <title>icon-edit</title>
    <desc>Created with Sketch.</desc>
    <defs></defs>
    <g id="Symbols" stroke="none" stroke-width="1" fill="none" fill-rule="evenodd">
        <g id="Components-/-Buttons-/-Edit-Button" transform="translate(-8.000000, -8.000000)" fill="#4990E2">
            <path d="M19.375,13.25 L12.1630859,20.4619141 C12.1289062,20.4960938 12.1015625,20.5097656 12.0673828,20.5234375 L8.40332031,21.9863281 C8.35546875,22 8.32128906,22 8.29394531,22 C8.21191406,22 8.14355469,21.9658203 8.08203125,21.9179688 C8,21.8359375 7.98632812,21.7060547 8.01367187,21.5966797 L9.4765625,17.9326172 C9.49023437,17.8984375 9.50390625,17.8710938 9.53808594,17.8369141 L16.75,10.625 L19.375,13.25 Z M21.7402344,9.63378906 C22.0820312,9.99609375 22.0820312,10.5429688 21.7402344,10.8847656 L20.25,12.375 L17.625,9.75 L19.1152344,8.25976562 C19.4570312,7.91796875 20.0039062,7.91796875 20.3662109,8.25976562 L21.7402344,9.63378906 L21.7402344,9.63378906 Z" id="icon-edit"></path>
        </g>
    </g>
</svg>