<?xml version="1.0" encoding="UTF-8" standalone="no"?>
<svg width="10px" height="10px" viewBox="0 0 10 10" version="1.1" xmlns="http://www.w3.org/2000/svg" xmlns:xlink="http://www.w3.org/1999/xlink">
    <!-- Generator: Sketch 3.7.2 (28276) - http://www.bohemiancoding.com/sketch -->
    <title>icon-box</title>
    <desc>Created with Sketch.</desc>
    <defs></defs>
    <g id="Deals-/-Deal" stroke="none" stroke-width="1" fill="none" fill-rule="evenodd">
        <g id="Deal---Closing@2x" transform="translate(-774.000000, -75.000000)" fill="#4990E2">
            <g id="Components-/-Buttons-/-Default-Button" transform="translate(764.000000, 68.000000)">
                <path d="M19.9658203,9.9296875 L19.1308594,7.4296875 C19.0527344,7.17578125 18.8085938,7 18.5400391,7 L11.4599609,7 C11.1914062,7 10.9472656,7.17578125 10.8691406,7.4296875 L10.0341797,9.9296875 C10.0097656,9.98828125 10,10.0566406 10,10.125 L10,16.375 C10,16.7216797 10.2783203,17 10.625,17 L19.375,17 C19.7216797,17 20,16.7216797 20,16.375 L20,10.125 C20,10.0566406 19.9902344,9.98828125 19.9658203,9.9296875 L19.9658203,9.9296875 Z M11.2841797,10.125 L11.9091797,8.25 L18.0908203,8.25 L18.7158203,10.125 L11.2841797,10.125 Z" id="icon-box"></path>
            </g>
        </g>
    </g>
</svg>