<?xml version="1.0" encoding="UTF-8" standalone="no"?>
<svg width="14px" height="14px" viewBox="0 0 14 14" version="1.1" xmlns="http://www.w3.org/2000/svg" xmlns:xlink="http://www.w3.org/1999/xlink">
    <!-- Generator: Sketch 3.7.2 (28276) - http://www.bohemiancoding.com/sketch -->
    <title>icon-star-empty</title>
    <desc>Created with Sketch.</desc>
    <defs></defs>
    <g id="Deals-/-Deal" stroke="none" stroke-width="1" fill="none" fill-rule="evenodd">
        <g id="Deal---Closing@2x" transform="translate(-436.000000, -23.000000)" fill="#FFB800">
            <g id="Header" transform="translate(180.000000, 0.000000)">
                <path d="M269.001063,28.25 L269.001063,28.25 L269.059728,28.25 C268.990913,28.3921712 268.983377,28.5349677 269.012037,28.6567737 L269.985454,28.4277344 L269.060776,28.8084842 C269.140544,29.0022072 269.289365,29.1378033 269.460348,29.2039358 L269.414098,29.25 L265.234478,29.25 L264.54974,29.25 L264.302142,28.6115949 L262.463295,23.8679623 L262.492183,23.7934758 C262.616372,23.9202682 262.792892,24 262.999126,24 C263.201583,24 263.375405,23.9231619 263.50412,23.78845 L263.535414,23.8691386 L261.69611,28.6115949 L261.448512,29.25 L260.763775,29.25 L256.584154,29.25 L256.537904,29.2039358 C256.708888,29.1378033 256.857708,29.0022072 256.937476,28.8084842 L256.012798,28.4277344 L256.986215,28.6567737 C257.015401,28.5327327 257.007051,28.3869237 256.942864,28.25 L256.997189,28.25 L260.191137,31.4311203 L260.567135,31.8056084 L260.467767,32.3268971 L259.654842,36.5785748 L259.614997,36.6042586 C259.58797,36.418769 259.480504,36.2425125 259.294767,36.11097 C259.127748,36.0036011 258.930539,35.972964 258.745914,36.019302 L258.755603,35.9684724 L262.457333,33.5823398 L262.999126,33.2331002 L263.540919,33.5823398 L267.242924,35.9699123 L267.252607,36.0207076 C267.195347,36.0065302 267.137721,36 267.080181,36 C266.942498,36 266.80632,36.0360473 266.663005,36.138415 C266.514885,36.2442148 266.416701,36.4058025 266.390667,36.6090366 L266.340596,36.5767604 L265.530485,32.3268971 L265.431117,31.8056084 L265.807115,31.4311203 L269.001063,28.25 Z M269.917095,28.7490234 L269.917095,28.7490234 L266.512798,32.1396484 L267.374126,36.6582031 C267.387798,36.7744141 267.339946,36.8837891 267.244243,36.9521484 C267.196392,36.9863281 267.128032,37 267.080181,37 C267.032329,37 266.970806,36.9863281 266.922954,36.9521484 L262.999126,34.4228516 L259.075298,36.9521484 C258.979595,37.0136719 258.849712,37.0136719 258.754009,36.9521484 C258.658306,36.8837891 258.610454,36.7744141 258.624126,36.6582031 L259.485454,32.1396484 L256.081157,28.7490234 C255.999126,28.6738281 255.985454,28.5439453 256.012798,28.4277344 C256.06065,28.3115234 256.176861,28.25 256.293071,28.25 L260.763775,28.25 L262.725689,23.1914062 C262.77354,23.0820312 262.882915,23 262.999126,23 C263.115337,23 263.224712,23.0820312 263.272564,23.1914062 L265.234478,28.25 L269.705181,28.25 C269.821392,28.25 269.937603,28.3115234 269.985454,28.4277344 C270.012798,28.5439453 269.999126,28.6738281 269.917095,28.7490234 L269.917095,28.7490234 Z" id="icon-star-empty"></path>
            </g>
        </g>
    </g>
</svg>