<?xml version="1.0" encoding="UTF-8" standalone="no"?>
<svg width="14px" height="14px" viewBox="0 0 14 14" version="1.1" xmlns="http://www.w3.org/2000/svg" xmlns:xlink="http://www.w3.org/1999/xlink">
    <!-- Generator: Sketch 3.7.1 (28215) - http://www.bohemiancoding.com/sketch -->
    <title>icon-barchart</title>
    <desc>Created with Sketch.</desc>
    <defs></defs>
    <g id="Symbols" stroke="none" stroke-width="1" fill="none" fill-rule="evenodd">
        <g id="Elements-/-Reports" transform="translate(-15.000000, -7.000000)" fill="#808994">
            <path d="M20.5439453,7 C20.3798828,7 20.25,7.12988281 20.25,7.29394531 L20.25,20.7060547 C20.25,20.8701172 20.3798828,21 20.5439453,21 L23.4560547,21 C23.6201172,21 23.75,20.8701172 23.75,20.7060547 L23.75,7.29394531 C23.75,7.12988281 23.6201172,7 23.4560547,7 L20.5439453,7 Z M15.2939453,14 C15.1298828,14 15,14.1298828 15,14.2939453 L15,20.7060547 C15,20.8701172 15.1298828,21 15.2939453,21 L18.2060547,21 C18.3701172,21 18.5,20.8701172 18.5,20.7060547 L18.5,14.2939453 C18.5,14.1298828 18.3701172,14 18.2060547,14 L15.2939453,14 Z M25.7939453,10.5 C25.6298828,10.5 25.5,10.6298828 25.5,10.7939453 L25.5,20.7060547 C25.5,20.8701172 25.6298828,21 25.7939453,21 L28.7060547,21 C28.8701172,21 29,20.8701172 29,20.7060547 L29,10.7939453 C29,10.6298828 28.8701172,10.5 28.7060547,10.5 L25.7939453,10.5 Z" id="icon-barchart"></path>
        </g>
    </g>
</svg>