<?xml version="1.0" encoding="utf-8"?>
<!-- Generator: Adobe Illustrator 19.2.0, SVG Export Plug-In . SVG Version: 6.00 Build 0)  -->
<svg version="1.1" id="icon-file" xmlns="http://www.w3.org/2000/svg" xmlns:xlink="http://www.w3.org/1999/xlink" x="0px" y="0px"
	 viewBox="0 0 13 17" enable-background="new 0 0 13 17" xml:space="preserve">
<title>icon-file</title>
<desc>Created with Sketch.</desc>
<g id="icon-file-symbols">
	<g id="icon-file-icons-file-icon" transform="translate(1.000000, 1.000000)">
		<g>
			<path id="icon-file-icon-file" fill="#F8F8F8" d="M11.5,4.8359c0-0.0938-0.0391-0.1719-0.0938-0.2422l-5-5
				C6.3359-0.4609,6.2578-0.5,6.1641-0.5H0.5c-0.5547,0-1,0.4453-1,1v14c0,0.5547,0.4453,1,1,1h10c0.5547,0,1-0.4453,1-1V4.8359z"/>
			<path fill="#B6B6B6" d="M10.5,16h-10C-0.3271,16-1,15.3271-1,14.5v-14C-1-0.3271-0.3271-1,0.5-1h5.6641
				C6.3584-1,6.543-0.9331,6.7129-0.8008l5.0469,5.041C11.9326,4.4565,12,4.6416,12,4.8359V14.5C12,15.3271,11.3271,16,10.5,16z
				 M0.5,0C0.2197,0,0,0.2197,0,0.5v14C0,14.7803,0.2197,15,0.5,15h10c0.2803,0,0.5-0.2197,0.5-0.5V4.8911L6.1055,0H0.5z"/>
		</g>
	</g>
</g>
</svg>
