<?xml version="1.0" encoding="utf-8"?>
<!-- Generator: Adobe Illustrator 19.2.0, SVG Export Plug-In . SVG Version: 6.00 Build 0)  -->
<svg version="1.1" id="icon-preview" xmlns="http://www.w3.org/2000/svg" xmlns:xlink="http://www.w3.org/1999/xlink" x="0px"
	 y="0px" viewBox="0 0 134 177" enable-background="new 0 0 134 177" xml:space="preserve">
<rect id="icon-preview-icon-preview-icon-preview-path-1" fill="#FFFFFF" width="134" height="177"/>
<rect fill="#D1DAE3" width="134" height="177"/>
<rect x="0.875" y="0.875" fill="#FFFFFF" width="132.3255" height="175.325"/>
<path id="icon-preview-icon-preview-icon-preview-rectangle-182-copy_1_" fill="#D1DAE3" d="M8,10h32c0.5523,0,1,0.4477,1,1v3
	c0,0.5523-0.4477,1-1,1H8c-0.5523,0-1-0.4477-1-1v-3C7,10.4477,7.4477,10,8,10z"/>
<path id="icon-preview-icon-preview-icon-preview-rectangle-182-copy-4" fill="#D1DAE3" d="M8,54h116c0.5523,0,1,0.4477,1,1v3
	c0,0.5523-0.4477,1-1,1H8c-0.5523,0-1-0.4477-1-1v-3C7,54.4477,7.4477,54,8,54z"/>
<path id="icon-preview-icon-preview-icon-preview-rectangle-182-copy-2" fill="#D1DAE3" d="M8,28h28c0.5523,0,1,0.4477,1,1v3
	c0,0.5523-0.4477,1-1,1H8c-0.5523,0-1-0.4477-1-1v-3C7,28.4477,7.4477,28,8,28z"/>
<path id="icon-preview-icon-preview-icon-preview-rectangle-182-copy-5" fill="#D1DAE3" d="M8,72h106c0.5523,0,1,0.4477,1,1v3
	c0,0.5523-0.4477,1-1,1H8c-0.5523,0-1-0.4477-1-1v-3C7,72.4477,7.4477,72,8,72z"/>
<path id="icon-preview-icon-preview-icon-preview-rectangle-182-copy-8" fill="#D1DAE3" d="M8,105h85.75c0.5523,0,1,0.4477,1,1v3
	c0,0.5523-0.4477,1-1,1H8c-0.5523,0-1-0.4477-1-1v-3C7,105.4477,7.4477,105,8,105z"/>
<path id="icon-preview-icon-preview-icon-preview-rectangle-182-copy-11" fill="#D1DAE3" d="M8,139h110c0.5523,0,1,0.4477,1,1v3
	c0,0.5523-0.4477,1-1,1H8c-0.5523,0-1-0.4477-1-1v-3C7,139.4477,7.4477,139,8,139z"/>
<path id="icon-preview-icon-preview-icon-preview-rectangle-182-copy" fill="#D1DAE3" d="M8,19h18c0.5523,0,1,0.4477,1,1v3
	c0,0.5523-0.4477,1-1,1H8c-0.5523,0-1-0.4477-1-1v-3C7,19.4477,7.4477,19,8,19z"/>
<path id="icon-preview-icon-preview-icon-preview-rectangle-182-copy-6" fill="#D1DAE3" d="M8,63h100.6087c0.5523,0,1,0.4477,1,1v3
	c0,0.5523-0.4477,1-1,1H8c-0.5523,0-1-0.4477-1-1v-3C7,63.4477,7.4477,63,8,63z"/>
<path id="icon-preview-icon-preview-icon-preview-rectangle-182-copy-9" fill="#D1DAE3" d="M8,96h98c0.5523,0,1,0.4477,1,1v3
	c0,0.5523-0.4477,1-1,1H8c-0.5523,0-1-0.4477-1-1v-3C7,96.4477,7.4477,96,8,96z"/>
<path id="icon-preview-icon-preview-icon-preview-rectangle-182-copy-12" fill="#D1DAE3" d="M8,130h115c0.5523,0,1,0.4477,1,1v3
	c0,0.5523-0.4477,1-1,1H8c-0.5523,0-1-0.4477-1-1v-3C7,130.4477,7.4477,130,8,130z"/>
<path id="icon-preview-icon-preview-icon-preview-rectangle-182-copy-7" fill="#D1DAE3" d="M8,81h110c0.5523,0,1,0.4477,1,1v3
	c0,0.5523-0.4477,1-1,1H8c-0.5523,0-1-0.4477-1-1v-3C7,81.4477,7.4477,81,8,81z"/>
<path id="icon-preview-icon-preview-icon-preview-rectangle-182-copy-10" fill="#D1DAE3" d="M8,114h89c0.5523,0,1,0.4477,1,1v3
	c0,0.5523-0.4477,1-1,1H8c-0.5523,0-1-0.4477-1-1v-3C7,114.4477,7.4477,114,8,114z"/>
<path id="icon-preview-icon-preview-icon-preview-rectangle-182-copy-13" fill="#D1DAE3" d="M8,148h35c0.5523,0,1,0.4477,1,1v3
	c0,0.5523-0.4477,1-1,1H8c-0.5523,0-1-0.4477-1-1v-3C7,148.4477,7.4477,148,8,148z"/>
</svg>
