<?xml version="1.0" encoding="utf-8"?>
<!-- Generator: Adobe Illustrator 19.2.0, SVG Export Plug-In . SVG Version: 6.00 Build 0)  -->
<svg version="1.1" id="icon-preview" xmlns="http://www.w3.org/2000/svg" xmlns:xlink="http://www.w3.org/1999/xlink" x="0px"
	 y="0px" viewBox="0 0 134 177" enable-background="new 0 0 134 177" xml:space="preserve">
<g id="icon-preview-icon-preview-symbols">
	<g id="icon-preview-icon-preview-icons-document-preview" transform="translate(3.000000, 2.000000)">
		<g id="icon-preview-icon-preview-icon-preview">
			<g id="icon-preview-icon-preview-rectangle-263">
				<g>
					<rect id="icon-preview-path-1" x="-3" y="-2" width="134" height="177"/>
				</g>
				<g>
					<rect id="icon-preview-icon-preview-path-1" x="-3" y="-2" fill="#FFFFFF" width="134" height="177"/>
				</g>
			</g>
			<path id="icon-preview-icon-preview-rectangle-182-copy_1_" fill="#D1DAE3" d="M5,8h32c0.5523,0,1,0.4477,1,1v3
				c0,0.5523-0.4477,1-1,1H5c-0.5523,0-1-0.4477-1-1V9C4,8.4477,4.4477,8,5,8z"/>
			<path id="icon-preview-icon-preview-rectangle-182-copy-4" fill="#D1DAE3" d="M5,52h116c0.5523,0,1,0.4477,1,1v3
				c0,0.5523-0.4477,1-1,1H5c-0.5523,0-1-0.4477-1-1v-3C4,52.4477,4.4477,52,5,52z"/>
			<path id="icon-preview-icon-preview-rectangle-182-copy-2" fill="#D1DAE3" d="M5,26h28c0.5523,0,1,0.4477,1,1v3
				c0,0.5523-0.4477,1-1,1H5c-0.5523,0-1-0.4477-1-1v-3C4,26.4477,4.4477,26,5,26z"/>
			<path id="icon-preview-icon-preview-rectangle-182-copy-5" fill="#D1DAE3" d="M5,70h106c0.5523,0,1,0.4477,1,1v3
				c0,0.5523-0.4477,1-1,1H5c-0.5523,0-1-0.4477-1-1v-3C4,70.4477,4.4477,70,5,70z"/>
			<path id="icon-preview-icon-preview-rectangle-182-copy-8" fill="#D1DAE3" d="M5,103h85.75c0.5523,0,1,0.4477,1,1v3
				c0,0.5523-0.4477,1-1,1H5c-0.5523,0-1-0.4477-1-1v-3C4,103.4477,4.4477,103,5,103z"/>
			<path id="icon-preview-icon-preview-rectangle-182-copy-11" fill="#D1DAE3" d="M5,137h110c0.5523,0,1,0.4477,1,1v3
				c0,0.5523-0.4477,1-1,1H5c-0.5523,0-1-0.4477-1-1v-3C4,137.4477,4.4477,137,5,137z"/>
			<path id="icon-preview-icon-preview-rectangle-182-copy" fill="#D1DAE3" d="M5,17h18c0.5523,0,1,0.4477,1,1v3
				c0,0.5523-0.4477,1-1,1H5c-0.5523,0-1-0.4477-1-1v-3C4,17.4477,4.4477,17,5,17z"/>
			<path id="icon-preview-icon-preview-rectangle-182-copy-6" fill="#D1DAE3" d="M5,61h100.6087c0.5523,0,1,0.4477,1,1v3
				c0,0.5523-0.4477,1-1,1H5c-0.5523,0-1-0.4477-1-1v-3C4,61.4477,4.4477,61,5,61z"/>
			<path id="icon-preview-icon-preview-rectangle-182-copy-9" fill="#D1DAE3" d="M5,94h98c0.5523,0,1,0.4477,1,1v3
				c0,0.5523-0.4477,1-1,1H5c-0.5523,0-1-0.4477-1-1v-3C4,94.4477,4.4477,94,5,94z"/>
			<path id="icon-preview-icon-preview-rectangle-182-copy-12" fill="#D1DAE3" d="M5,128h115c0.5523,0,1,0.4477,1,1v3
				c0,0.5523-0.4477,1-1,1H5c-0.5523,0-1-0.4477-1-1v-3C4,128.4477,4.4477,128,5,128z"/>
			<path id="icon-preview-icon-preview-rectangle-182-copy-7" fill="#D1DAE3" d="M5,79h110c0.5523,0,1,0.4477,1,1v3
				c0,0.5523-0.4477,1-1,1H5c-0.5523,0-1-0.4477-1-1v-3C4,79.4477,4.4477,79,5,79z"/>
			<path id="icon-preview-icon-preview-rectangle-182-copy-10" fill="#D1DAE3" d="M5,112h89c0.5523,0,1,0.4477,1,1v3
				c0,0.5523-0.4477,1-1,1H5c-0.5523,0-1-0.4477-1-1v-3C4,112.4477,4.4477,112,5,112z"/>
			<path id="icon-preview-icon-preview-rectangle-182-copy-13" fill="#D1DAE3" d="M5,146h35c0.5523,0,1,0.4477,1,1v3
				c0,0.5523-0.4477,1-1,1H5c-0.5523,0-1-0.4477-1-1v-3C4,146.4477,4.4477,146,5,146z"/>
		</g>
	</g>
</g>
</svg>
