<?xml version="1.0" encoding="UTF-8" standalone="no"?>
<svg width="14px" height="14px" viewBox="0 0 14 14" version="1.1" xmlns="http://www.w3.org/2000/svg" xmlns:xlink="http://www.w3.org/1999/xlink">
    <!-- Generator: Sketch 3.7.1 (28215) - http://www.bohemiancoding.com/sketch -->
    <title>icon-dashboard</title>
    <desc>Created with Sketch.</desc>
    <defs></defs>
    <g id="Symbols" stroke="none" stroke-width="1" fill="none" fill-rule="evenodd">
        <g id="Elements-/-Dashboard" transform="translate(-15.000000, -8.000000)" fill="#808994">
            <path d="M22,8 C18.1240234,8 15,11.1240234 15,15 C15,18.8759766 18.1240234,22 22,22 C25.8759766,22 29,18.8759766 29,15 C29,11.1240234 25.8759766,8 22,8 L22,8 Z M22,13.25 L23.1689453,13.25 L23.1689453,19.375 C23.1689453,20.0244141 22.6494141,20.5439453 22,20.5439453 C21.3505859,20.5439453 20.8310547,20.0244141 20.8310547,19.375 C20.8310547,19.2929688 20.8515625,19.1972656 20.8652344,19.1152344 L22,13.25 Z M25.7939453,15 C25.7939453,12.4228516 23.7021484,10.3310547 21.125,10.3310547 C18.5957031,10.3310547 16.5244141,12.3613281 16.4560547,14.8701172 C16.5244141,11.8759766 18.9853516,9.45605469 22,9.45605469 C25.0625,9.45605469 27.5439453,11.9375 27.5439453,15 L25.7939453,15 Z" id="icon-dashboard"></path>
        </g>
    </g>
</svg>