<?xml version="1.0" encoding="UTF-8" standalone="no"?>
<svg width="20px" height="15px" viewBox="0 0 20 15" version="1.1" xmlns="http://www.w3.org/2000/svg" xmlns:xlink="http://www.w3.org/1999/xlink">
    <!-- Generator: Sketch 3.7.1 (28215) - http://www.bohemiancoding.com/sketch -->
    <title>icon-uploadcloud</title>
    <desc>Created with Sketch.</desc>
    <defs></defs>
    <g id="Symbols" stroke="none" stroke-width="1" fill="none" fill-rule="evenodd">
        <g id="Components-/-Inputs-/-File-Upload" transform="translate(-10.000000, -12.000000)" fill="#D1DAE3">
            <g id="Components-/-Inputs-/-Default-Input">
                <g id="Group-2">
                    <path d="M30,22 C30,19.6367188 28.359375,17.6445312 26.1621094,17.1367188 C25.625,14.2265625 23.0761719,12 20,12 C16.5527344,12 13.75,14.8027344 13.75,18.25 L13.75,18.2988281 C11.6210938,18.6015625 10,20.4277344 10,22.625 C10,25.0371094 11.9628906,27 14.375,27 L18.3300781,27 L18.3300781,23.25 L15.2050781,23.25 C15.0488281,23.25 14.8828125,23.1621094 14.8144531,22.9960938 C14.765625,22.8300781 14.7949219,22.6445312 14.9121094,22.5371094 L20,17.4589844 L25.0878906,22.5371094 C25.2050781,22.6445312 25.234375,22.8300781 25.1855469,22.9960938 C25.1171875,23.1621094 24.9511719,23.25 24.7949219,23.25 L21.6699219,23.25 L21.6699219,27 L25,27 C27.7539062,27 30,24.7539062 30,22 L30,22 Z" id="icon-uploadcloud"></path>
                </g>
            </g>
        </g>
    </g>
</svg>