<?xml version="1.0" encoding="UTF-8" standalone="no"?>
<svg width="14px" height="14px" viewBox="0 0 14 14" version="1.1" xmlns="http://www.w3.org/2000/svg" xmlns:xlink="http://www.w3.org/1999/xlink">
    <!-- Generator: Sketch 3.7.1 (28215) - http://www.bohemiancoding.com/sketch -->
    <title>icon-users</title>
    <desc>Created with Sketch.</desc>
    <defs></defs>
    <g id="Symbols" stroke="none" stroke-width="1" fill="none" fill-rule="evenodd">
        <g id="Elements-/-Team" transform="translate(-15.000000, -8.000000)" fill="#808994">
            <path d="M29,17.625 C29,15.5810547 26.0810547,16.1689453 26.0810547,14.3505859 C26.0810547,14.3505859 27.25,13.0380859 27.25,10.625 C27.25,9.18261719 26.0673828,8 24.625,8 C23.1689453,8 22,9.18261719 22,10.625 C22,10.9189453 22.0136719,11.1787109 22.0478516,11.4384766 L22.0478516,11.4521484 C22.0478516,11.4521484 23.1689453,12.4365234 23.1689453,14.125 C23.1689453,16.4423828 22.1298828,18.0146484 22.1298828,18.0146484 C22.1298828,18.0146484 22.4033203,18.2744141 23.1005859,18.5 L28.7060547,18.5 C28.8701172,18.5 29,18.3701172 29,18.2060547 L29,17.625 Z M23.75,21.125 C23.75,19.0810547 20.8310547,19.6689453 20.8310547,17.8505859 C20.8310547,17.8505859 22,16.5380859 22,14.125 C22,12.6826172 20.8173828,11.5 19.375,11.5 C17.9189453,11.5 16.75,12.6826172 16.75,14.125 C16.75,16.5380859 17.9189453,17.8505859 17.9189453,17.8505859 C17.9189453,19.6689453 15,19.1015625 15,21.125 L15,21.7060547 C15,21.8701172 15.1298828,22 15.2939453,22 L23.4560547,22 C23.6201172,22 23.75,21.8701172 23.75,21.7060547 L23.75,21.125 Z" id="icon-users"></path>
        </g>
    </g>
</svg>