<?xml version="1.0" encoding="UTF-8" standalone="no"?>
<svg width="8px" height="13px" viewBox="0 0 8 13" version="1.1" xmlns="http://www.w3.org/2000/svg" xmlns:xlink="http://www.w3.org/1999/xlink">
    <!-- Generator: Sketch 3.7.1 (28215) - http://www.bohemiancoding.com/sketch -->
    <title>icon-up-down</title>
    <desc>Created with Sketch.</desc>
    <defs></defs>
    <g id="Symbols" stroke="none" stroke-width="1" fill="none" fill-rule="evenodd">
        <g id="Components-/-Inputs-/-Select" transform="translate(-379.000000, -14.000000)" fill="#1E354A">
            <g id="Group">
                <g id="icon-up-down" transform="translate(383.000000, 20.000000) rotate(-90.000000) translate(-383.000000, -20.000000) translate(376.500000, 16.500000)">
                    <path d="M8.58254657,0.0410006101 L7.50098598,1.06259915 C7.44310983,1.11726663 7.44310983,1.21635143 7.50098598,1.27101891 L9.85943917,3.49871873 L7.50098598,5.72641855 C7.44310983,5.78108603 7.44310983,5.88017084 7.50098598,5.93483832 L8.58254657,6.95643685 C8.64042272,7.01452105 8.74532325,7.01452105 8.8031994,6.95643685 L12.3553482,3.60463697 C12.4132244,3.54655278 12.4132244,3.45088469 12.3553482,3.39280049 L8.8031994,0.0410006101 C8.77064406,0.0170835876 8.73808873,-4.4408921e-16 8.69468162,-4.4408921e-16 C8.6512745,-4.4408921e-16 8.61510191,0.0170835876 8.58254657,0.0410006101 Z M4.21496411,6.95899939 L5.2965247,5.93740085 C5.35440085,5.88273337 5.35440085,5.78364857 5.2965247,5.72898109 L2.9380715,3.50128127 L5.2965247,1.27358145 C5.35440085,1.21891397 5.35440085,1.11982916 5.2965247,1.06516168 L4.21496411,0.0435631483 C4.15708795,-0.0145210494 4.05218743,-0.0145210494 3.99431128,0.0435631483 L0.442162453,3.39536303 C0.384286301,3.45344722 0.384286301,3.54911531 0.442162453,3.60719951 L3.99431128,6.95899939 C4.02686661,6.98291641 4.05942195,7 4.10282906,7 C4.14623618,7 4.18240877,6.98291641 4.21496411,6.95899939 Z"></path>
                </g>
            </g>
        </g>
    </g>
</svg>