<?xml version="1.0" encoding="UTF-8" standalone="no"?>
<svg width="10px" height="10px" viewBox="0 0 10 10" version="1.1" xmlns="http://www.w3.org/2000/svg" xmlns:xlink="http://www.w3.org/1999/xlink">
    <!-- Generator: Sketch 3.7.1 (28215) - http://www.bohemiancoding.com/sketch -->
    <title>iocn-close</title>
    <desc>Created with Sketch.</desc>
    <defs></defs>
    <g id="Symbols" stroke="none" stroke-width="1" fill="none" fill-rule="evenodd">
        <g id="Icons-/-Close-Icon" transform="translate(-5.000000, -5.000000)" fill="#861F2C">
            <g id="Group-17">
                <path d="M11.7724609,10 L14.3310547,7.44140625 C14.3652344,7.39746094 14.3847656,7.34863281 14.3847656,7.29003906 C14.3847656,7.23144531 14.3652344,7.1875 14.3310547,7.14355469 L12.8564453,5.66894531 C12.8125,5.63476562 12.7685547,5.61523438 12.7099609,5.61523438 C12.6513672,5.61523438 12.6025391,5.63476562 12.5585938,5.66894531 L10,8.22753906 L7.44140625,5.66894531 C7.39746094,5.63476562 7.34863281,5.61523438 7.29003906,5.61523438 C7.23144531,5.61523438 7.1875,5.63476562 7.14355469,5.66894531 L5.66894531,7.14355469 C5.63476562,7.1875 5.61523438,7.23144531 5.61523438,7.29003906 C5.61523438,7.34863281 5.63476562,7.39746094 5.66894531,7.44140625 L8.22753906,10 L5.66894531,12.5585938 C5.63476562,12.6025391 5.61523438,12.6513672 5.61523438,12.7099609 C5.61523438,12.7685547 5.63476562,12.8125 5.66894531,12.8564453 L7.14355469,14.3310547 C7.1875,14.3652344 7.23144531,14.3847656 7.29003906,14.3847656 C7.34863281,14.3847656 7.39746094,14.3652344 7.44140625,14.3310547 L10,11.7724609 L12.5585938,14.3310547 C12.6025391,14.3652344 12.6513672,14.3847656 12.7099609,14.3847656 C12.7685547,14.3847656 12.8125,14.3652344 12.8564453,14.3310547 L14.3310547,12.8564453 C14.3652344,12.8125 14.3847656,12.7685547 14.3847656,12.7099609 C14.3847656,12.6513672 14.3652344,12.6025391 14.3310547,12.5585938 L11.7724609,10 Z" id="iocn-close"></path>
            </g>
        </g>
    </g>
</svg>