<?xml version="1.0" encoding="UTF-8" standalone="no"?>
<svg width="100px" height="36px" viewBox="0 0 100 36" version="1.1" xmlns="http://www.w3.org/2000/svg" xmlns:xlink="http://www.w3.org/1999/xlink">
    <!-- Generator: Sketch 3.7.1 (28215) - http://www.bohemiancoding.com/sketch -->
    <title>logo</title>
    <desc>Created with Sketch.</desc>
    <defs>
        <polygon id="path-1" points="49.9704723 35.861808 99.940932 35.861808 99.940932 0.0891564392 49.9704723 0.0891564392 1.25944589e-05 0.0891564392 1.25944589e-05 35.861808 49.9704723 35.861808"></polygon>
        <polygon id="path-3" points="9.60677582 0.0891564392 0 0.0891564392 0 8.65549639 9.60677582 8.65549639 9.60677582 0.0891564392"></polygon>
    </defs>
    <g id="Symbols" stroke="none" stroke-width="1" fill="none" fill-rule="evenodd">
        <g id="Logo" transform="translate(0.000000, -1.000000)">
            <g id="logo" transform="translate(0.000000, 0.853755)">
                <g id="Group" transform="translate(0.000000, 0.035364)">
                    <mask id="mask-2" fill="white">
                        <use xlink:href="#path-1"></use>
                    </mask>
                    <g id="Clip-2"></g>
                    <path d="M80.7351511,29.5579745 C80.7351511,29.5579745 81.8303652,30.292768 82.8083249,30.292768 C83.903539,30.292768 85.3507683,29.9834599 86.0549244,28.2817673 L86.4461083,27.3537185 L77.8797355,7.82372658 L85.5463602,7.82372658 L88.5191562,16.989158 C88.8712972,18.0721098 89.2623552,20.0831105 89.2623552,20.0831105 L89.3405668,20.0831105 C89.3405668,20.0831105 89.7317506,18.1880381 90.0055542,17.1052108 L92.5479975,7.82372658 L99.9409446,7.82372658 L91.6875441,29.8674071 C90.0055542,34.3147694 86.4851511,35.861808 83.2777204,35.861808 C80.6177708,35.861808 78.5837657,34.4694235 78.5837657,34.4694235 L80.7351511,29.5579745 Z M69.7437154,0.0891564392 L76.5105919,0.0891564392 L76.5105919,19.5029711 C76.5105919,21.3980435 76.8626071,22.0553855 78.3881738,22.0553855 C78.8184005,22.0553855 80.4690302,22.0166597 80.4690302,22.0166597 L80.4690302,27.8176807 C80.4690302,27.8176807 78.2707935,27.9337335 77.1755793,27.9337335 C73.5769647,27.9337335 69.7437154,27.0828872 69.7437154,20.3925432 L69.7437154,0.0891564392 Z M54.2144962,17.87873 L47.7212972,7.82372658 L55.3488791,7.82372658 L57.5393073,12.2712134 C57.8131108,12.7739013 58.1651259,13.5860218 58.1651259,13.5860218 L58.2433375,13.5860218 C58.2433375,13.5860218 58.6345214,12.7739013 58.8692821,12.2712134 L61.0597103,7.82372658 L68.6871662,7.82372658 L62.233136,17.87873 L68.5699118,27.7403537 L61.1379219,27.7403537 L58.712733,23.2542656 C58.5171411,22.9062318 58.2433375,22.2488898 58.2433375,22.2488898 L58.1651259,22.2488898 C58.1651259,22.2488898 57.8913224,22.9062318 57.6957305,23.2542656 L55.3097103,27.7403537 L47.8777204,27.7403537 L54.2144962,17.87873 Z M36.7294836,22.6355249 C39.1938413,22.6355249 41.3060579,20.817904 41.3060579,17.8401288 C41.3060579,14.8236277 39.1938413,12.9285553 36.7294836,12.9285553 C34.2652519,12.9285553 32.1530353,14.8236277 32.1530353,17.8401288 C32.1530353,20.817904 34.2652519,22.6355249 36.7294836,22.6355249 L36.7294836,22.6355249 Z M36.6904408,7.35963992 C43.0662594,7.35963992 48.151272,11.5750211 48.151272,17.8401288 C48.151272,24.0663861 43.0662594,28.2044403 36.7294836,28.2044403 C30.3928338,28.2044403 25.3078212,24.0663861 25.3078212,17.8401288 C25.3078212,11.5750211 30.3928338,7.35963992 36.6904408,7.35963992 L36.6904408,7.35963992 Z M9.6615995,21.9393327 C14.394471,21.9393327 17.2890554,19.1549372 17.2890554,13.8567287 C17.2890554,8.59724586 14.2772166,5.89005292 9.6615995,5.89005292 L6.8452267,5.89005292 L6.8452267,21.9393327 L9.6615995,21.9393327 Z M1.25944589e-05,8.6555213 L9.6068136,0.0891564392 L9.93540302,0.0891564392 C18.7362846,0.0891564392 24.3690302,5.15525941 24.3690302,13.8567287 C24.3690302,22.5581979 18.7362846,27.7403537 9.93540302,27.7403537 L1.25944589e-05,27.7403537 L1.25944589e-05,8.6555213 Z" id="Fill-1" fill="#4E6586" mask="url(#mask-2)"></path>
                </g>
                <g id="Group-6" transform="translate(0.000000, 0.035364)">
                    <mask id="mask-4" fill="white">
                        <use xlink:href="#path-3"></use>
                    </mask>
                    <g id="Clip-5"></g>
                    <polygon id="Fill-4" fill="#0AADFF" mask="url(#mask-4)" points="9.60677582 0.0891315352 -2.51889169e-05 8.65549639 9.60677582 8.65549639"></polygon>
                </g>
                <polygon id="Fill-7" fill="#253547" points="0 9.51060128 6.83602015 9.51060128 6.83602015 8.69088502 0 8.69088502"></polygon>
            </g>
        </g>
    </g>
</svg>